# xmcd
#
# Track frame offsets:
#	150
#	27530
#	56911
#	75560
#	101430
#	123716
#	175718
#	197544
#	217204
#
# Disc length: 3522 seconds
#
# Revision: 0
# Processed by: cddbd v1.5.2PL0 Copyright (c) Steve Scherf et al.
# Submitted via: dBpowerAMP V4.0
#
DISCID=7f0dc009
DTITLE=Blues Traveler - Schmidt Fieldhouse,Xavier University,Cincinnati,OH (22 Apr 1993) Disc 1
DYEAR=1993
DGENRE=Blues/Rock
TTITLE0=01 - Gina
TTITLE1=02 - Mulling it Over
TTITLE2=03 - Optimistic Thought
TTITLE3=04 - Conquer Me
TTITLE4=05 - Love And Greed
TTITLE5=06 - Whoops
TTITLE6=07 - Dropping Some Nyc
TTITLE7=08 - What's For Breakfast
TTITLE8=09 - Brother John
EXTD=Audience Recording
EXTT0=
EXTT1=
EXTT2=
EXTT3=
EXTT4=
EXTT5=
EXTT6=
EXTT7=
EXTT8=
PLAYORDER=
